<mxfile host="app.diagrams.net" modified="2023-08-15T07:03:51.830Z" agent="Mozilla/5.0 (Windows NT 10.0; Win64; x64) AppleWebKit/537.36 (KHTML, like Gecko) Chrome/115.0.0.0 Safari/537.36" etag="4mVw4b3epsHJoEo1G-fO" version="21.6.8" type="github" pages="6">
  <diagram id="C5RBs43oDa-KdzZeNtuy" name="Linear_Search">
    <mxGraphModel dx="880" dy="478" grid="1" gridSize="10" guides="1" tooltips="1" connect="1" arrows="1" fold="1" page="1" pageScale="1" pageWidth="827" pageHeight="1169" math="0" shadow="0">
      <root>
        <mxCell id="WIyWlLk6GJQsqaUBKTNV-0" />
        <mxCell id="WIyWlLk6GJQsqaUBKTNV-1" parent="WIyWlLk6GJQsqaUBKTNV-0" />
        <mxCell id="WIyWlLk6GJQsqaUBKTNV-2" value="" style="rounded=0;html=1;jettySize=auto;orthogonalLoop=1;fontSize=11;endArrow=block;endFill=0;endSize=8;strokeWidth=1;shadow=0;labelBackgroundColor=none;edgeStyle=orthogonalEdgeStyle;" parent="WIyWlLk6GJQsqaUBKTNV-1" source="WIyWlLk6GJQsqaUBKTNV-3" edge="1">
          <mxGeometry relative="1" as="geometry">
            <mxPoint x="220" y="180" as="targetPoint" />
          </mxGeometry>
        </mxCell>
        <mxCell id="WIyWlLk6GJQsqaUBKTNV-3" value="Start" style="rounded=1;whiteSpace=wrap;html=1;fontSize=12;glass=0;strokeWidth=1;shadow=0;shape=ellipse;perimeter=ellipsePerimeter;" parent="WIyWlLk6GJQsqaUBKTNV-1" vertex="1">
          <mxGeometry x="160" y="80" width="120" height="40" as="geometry" />
        </mxCell>
        <mxCell id="WIyWlLk6GJQsqaUBKTNV-4" value="" style="rounded=0;html=1;jettySize=auto;orthogonalLoop=1;fontSize=11;endArrow=block;endFill=0;endSize=8;strokeWidth=1;shadow=0;labelBackgroundColor=none;edgeStyle=orthogonalEdgeStyle;" parent="WIyWlLk6GJQsqaUBKTNV-1" edge="1">
          <mxGeometry y="20" relative="1" as="geometry">
            <mxPoint as="offset" />
            <mxPoint x="220" y="280" as="sourcePoint" />
            <mxPoint x="220" y="310" as="targetPoint" />
          </mxGeometry>
        </mxCell>
        <mxCell id="WIyWlLk6GJQsqaUBKTNV-8" value="true" style="rounded=0;html=1;jettySize=auto;orthogonalLoop=1;fontSize=11;endArrow=block;endFill=0;endSize=8;strokeWidth=1;shadow=0;labelBackgroundColor=none;edgeStyle=orthogonalEdgeStyle;" parent="WIyWlLk6GJQsqaUBKTNV-1" edge="1">
          <mxGeometry x="1" y="95" relative="1" as="geometry">
            <mxPoint x="-5" y="30" as="offset" />
            <mxPoint x="220" y="370" as="sourcePoint" />
            <mxPoint x="220" y="450" as="targetPoint" />
          </mxGeometry>
        </mxCell>
        <mxCell id="KGltauu2zUZbUfvoL0qt-2" value="For($i=0,$i&amp;lt;=count($array),$i++)" style="rounded=0;whiteSpace=wrap;html=1;" vertex="1" parent="WIyWlLk6GJQsqaUBKTNV-1">
          <mxGeometry x="125" y="320" width="190" height="80" as="geometry" />
        </mxCell>
        <mxCell id="KGltauu2zUZbUfvoL0qt-3" value="&lt;div style=&quot;text-align: justify;&quot;&gt;&lt;span style=&quot;background-color: initial;&quot;&gt;If($array&lt;/span&gt;&lt;font face=&quot;Monaco, Lucida Console, Courier New, Courier, monospace&quot; color=&quot;#555555&quot;&gt;&lt;span style=&quot;font-size: 14px; background-color: rgb(255, 255, 255);&quot;&gt;[$i]&lt;/span&gt;&lt;/font&gt;&lt;/div&gt;==$n)" style="rhombus;whiteSpace=wrap;html=1;" vertex="1" parent="WIyWlLk6GJQsqaUBKTNV-1">
          <mxGeometry x="160" y="450" width="120" height="100" as="geometry" />
        </mxCell>
        <mxCell id="KGltauu2zUZbUfvoL0qt-4" value="" style="endArrow=classic;html=1;rounded=0;" edge="1" parent="WIyWlLk6GJQsqaUBKTNV-1">
          <mxGeometry width="50" height="50" relative="1" as="geometry">
            <mxPoint x="280" y="499.5" as="sourcePoint" />
            <mxPoint x="360" y="499.5" as="targetPoint" />
            <Array as="points">
              <mxPoint x="280" y="499.5" />
            </Array>
          </mxGeometry>
        </mxCell>
        <mxCell id="KGltauu2zUZbUfvoL0qt-5" value="echo $i;" style="rounded=0;whiteSpace=wrap;html=1;" vertex="1" parent="WIyWlLk6GJQsqaUBKTNV-1">
          <mxGeometry x="380" y="470" width="120" height="60" as="geometry" />
        </mxCell>
        <mxCell id="KGltauu2zUZbUfvoL0qt-9" value="" style="endArrow=classic;html=1;rounded=0;" edge="1" parent="WIyWlLk6GJQsqaUBKTNV-1">
          <mxGeometry width="50" height="50" relative="1" as="geometry">
            <mxPoint x="160" y="500" as="sourcePoint" />
            <mxPoint x="120" y="360" as="targetPoint" />
            <Array as="points">
              <mxPoint x="80" y="500" />
              <mxPoint x="80" y="420" />
              <mxPoint x="80" y="360" />
            </Array>
          </mxGeometry>
        </mxCell>
        <mxCell id="KGltauu2zUZbUfvoL0qt-12" value="$array=arr(5,7,9,25,20);&lt;br style=&quot;border-color: var(--border-color); font-family: Consolas, monaco, monospace;&quot;&gt;&lt;span style=&quot;font-family: Consolas, monaco, monospace;&quot;&gt;$n=9;&lt;/span&gt;" style="rounded=0;whiteSpace=wrap;html=1;" vertex="1" parent="WIyWlLk6GJQsqaUBKTNV-1">
          <mxGeometry x="142.5" y="180" width="150" height="90" as="geometry" />
        </mxCell>
        <mxCell id="KGltauu2zUZbUfvoL0qt-13" value="false" style="text;html=1;align=center;verticalAlign=middle;resizable=0;points=[];autosize=1;strokeColor=none;fillColor=none;" vertex="1" parent="WIyWlLk6GJQsqaUBKTNV-1">
          <mxGeometry x="110" y="470" width="50" height="30" as="geometry" />
        </mxCell>
        <mxCell id="KGltauu2zUZbUfvoL0qt-14" value="Stop" style="ellipse;whiteSpace=wrap;html=1;" vertex="1" parent="WIyWlLk6GJQsqaUBKTNV-1">
          <mxGeometry x="390" y="585" width="100" height="55" as="geometry" />
        </mxCell>
        <mxCell id="KGltauu2zUZbUfvoL0qt-15" value="" style="endArrow=classic;html=1;rounded=0;exitX=0.5;exitY=1;exitDx=0;exitDy=0;exitPerimeter=0;" edge="1" parent="WIyWlLk6GJQsqaUBKTNV-1" source="KGltauu2zUZbUfvoL0qt-5">
          <mxGeometry width="50" height="50" relative="1" as="geometry">
            <mxPoint x="440" y="540" as="sourcePoint" />
            <mxPoint x="440" y="580" as="targetPoint" />
          </mxGeometry>
        </mxCell>
      </root>
    </mxGraphModel>
  </diagram>
  <diagram id="2DKp2e6qwBQTypjnC3EA" name="Binary _Search">
    <mxGraphModel dx="880" dy="478" grid="1" gridSize="10" guides="1" tooltips="1" connect="1" arrows="1" fold="1" page="1" pageScale="1" pageWidth="850" pageHeight="1100" math="0" shadow="0">
      <root>
        <mxCell id="0" />
        <mxCell id="1" parent="0" />
        <mxCell id="SCSbc_0qcd5S8qs15RRI-1" value="Start" style="ellipse;whiteSpace=wrap;html=1;" vertex="1" parent="1">
          <mxGeometry x="300" y="120" width="120" height="80" as="geometry" />
        </mxCell>
        <mxCell id="SCSbc_0qcd5S8qs15RRI-2" value="" style="endArrow=classic;html=1;rounded=0;" edge="1" parent="1">
          <mxGeometry width="50" height="50" relative="1" as="geometry">
            <mxPoint x="360" y="210" as="sourcePoint" />
            <mxPoint x="360" y="270" as="targetPoint" />
          </mxGeometry>
        </mxCell>
        <mxCell id="SCSbc_0qcd5S8qs15RRI-3" value="$array=A( 7,9,12,20,32 );&lt;br&gt;$x=12; $right;$left;" style="rounded=0;whiteSpace=wrap;html=1;" vertex="1" parent="1">
          <mxGeometry x="270" y="280" width="180" height="80" as="geometry" />
        </mxCell>
        <mxCell id="SCSbc_0qcd5S8qs15RRI-4" value="if( $left&amp;lt;=$right )" style="rhombus;whiteSpace=wrap;html=1;" vertex="1" parent="1">
          <mxGeometry x="295" y="420" width="130" height="120" as="geometry" />
        </mxCell>
        <mxCell id="SCSbc_0qcd5S8qs15RRI-5" value="" style="endArrow=classic;html=1;rounded=0;" edge="1" parent="1">
          <mxGeometry width="50" height="50" relative="1" as="geometry">
            <mxPoint x="359.5" y="360" as="sourcePoint" />
            <mxPoint x="359.5" y="420" as="targetPoint" />
          </mxGeometry>
        </mxCell>
        <mxCell id="SCSbc_0qcd5S8qs15RRI-6" value="$mid= ($left+$right)/2" style="rounded=0;whiteSpace=wrap;html=1;" vertex="1" parent="1">
          <mxGeometry x="480" y="450" width="120" height="60" as="geometry" />
        </mxCell>
        <mxCell id="SCSbc_0qcd5S8qs15RRI-7" value="$array[$mid]==$x" style="rhombus;whiteSpace=wrap;html=1;" vertex="1" parent="1">
          <mxGeometry x="480" y="570" width="130" height="120" as="geometry" />
        </mxCell>
      </root>
    </mxGraphModel>
  </diagram>
  <diagram id="U1lt7zL5OxxnunDMV_N3" name="Selection _Sort">
    <mxGraphModel dx="880" dy="478" grid="1" gridSize="10" guides="1" tooltips="1" connect="1" arrows="1" fold="1" page="1" pageScale="1" pageWidth="850" pageHeight="1100" math="0" shadow="0">
      <root>
        <mxCell id="0" />
        <mxCell id="1" parent="0" />
        <mxCell id="sU1NiZD6SbiHwIhZs8Sj-1" value="Start" style="ellipse;whiteSpace=wrap;html=1;" vertex="1" parent="1">
          <mxGeometry x="300" y="50" width="120" height="80" as="geometry" />
        </mxCell>
        <mxCell id="sU1NiZD6SbiHwIhZs8Sj-2" value="$n=count($array)" style="rounded=0;whiteSpace=wrap;html=1;" vertex="1" parent="1">
          <mxGeometry x="300" y="170" width="120" height="60" as="geometry" />
        </mxCell>
        <mxCell id="sU1NiZD6SbiHwIhZs8Sj-3" value="For ($i=0;$i&amp;lt;$n-1;$++)" style="rounded=0;whiteSpace=wrap;html=1;" vertex="1" parent="1">
          <mxGeometry x="305" y="280" width="120" height="60" as="geometry" />
        </mxCell>
        <mxCell id="sU1NiZD6SbiHwIhZs8Sj-4" value="$mid=$i" style="rounded=0;whiteSpace=wrap;html=1;" vertex="1" parent="1">
          <mxGeometry x="310" y="380" width="120" height="60" as="geometry" />
        </mxCell>
        <mxCell id="sU1NiZD6SbiHwIhZs8Sj-5" value="if($array[$j]&amp;lt;$array[$mid]&lt;br&gt;)" style="rhombus;whiteSpace=wrap;html=1;" vertex="1" parent="1">
          <mxGeometry x="275" y="580" width="190" height="80" as="geometry" />
        </mxCell>
        <mxCell id="sU1NiZD6SbiHwIhZs8Sj-6" value="For ($j=$i+1;$j&amp;lt;$n;$j++)" style="rounded=0;whiteSpace=wrap;html=1;" vertex="1" parent="1">
          <mxGeometry x="310" y="480" width="120" height="60" as="geometry" />
        </mxCell>
        <mxCell id="sU1NiZD6SbiHwIhZs8Sj-7" value="$mid=$j" style="rounded=0;whiteSpace=wrap;html=1;" vertex="1" parent="1">
          <mxGeometry x="305" y="700" width="120" height="60" as="geometry" />
        </mxCell>
        <mxCell id="sU1NiZD6SbiHwIhZs8Sj-8" value="$stemp=$array[$i];&lt;br&gt;$array[$i]=$mid;&lt;br&gt;$mid=$stemp" style="rounded=0;whiteSpace=wrap;html=1;" vertex="1" parent="1">
          <mxGeometry x="310" y="810" width="120" height="60" as="geometry" />
        </mxCell>
        <mxCell id="sU1NiZD6SbiHwIhZs8Sj-10" value="Return $array;" style="rounded=0;whiteSpace=wrap;html=1;" vertex="1" parent="1">
          <mxGeometry x="300" y="920" width="120" height="60" as="geometry" />
        </mxCell>
        <mxCell id="sU1NiZD6SbiHwIhZs8Sj-84" value="" style="endArrow=classic;html=1;rounded=0;" edge="1" parent="1">
          <mxGeometry width="50" height="50" relative="1" as="geometry">
            <mxPoint x="364.5" y="130" as="sourcePoint" />
            <mxPoint x="364.5" y="170" as="targetPoint" />
          </mxGeometry>
        </mxCell>
        <mxCell id="sU1NiZD6SbiHwIhZs8Sj-85" value="" style="endArrow=classic;html=1;rounded=0;" edge="1" parent="1">
          <mxGeometry width="50" height="50" relative="1" as="geometry">
            <mxPoint x="359.5" y="240" as="sourcePoint" />
            <mxPoint x="359.5" y="280" as="targetPoint" />
          </mxGeometry>
        </mxCell>
        <mxCell id="sU1NiZD6SbiHwIhZs8Sj-86" value="" style="endArrow=classic;html=1;rounded=0;" edge="1" parent="1">
          <mxGeometry width="50" height="50" relative="1" as="geometry">
            <mxPoint x="364.5" y="340" as="sourcePoint" />
            <mxPoint x="364.5" y="380" as="targetPoint" />
          </mxGeometry>
        </mxCell>
        <mxCell id="sU1NiZD6SbiHwIhZs8Sj-87" value="" style="endArrow=classic;html=1;rounded=0;" edge="1" parent="1">
          <mxGeometry width="50" height="50" relative="1" as="geometry">
            <mxPoint x="369.5" y="440" as="sourcePoint" />
            <mxPoint x="369.5" y="480" as="targetPoint" />
          </mxGeometry>
        </mxCell>
        <mxCell id="sU1NiZD6SbiHwIhZs8Sj-88" value="" style="endArrow=classic;html=1;rounded=0;" edge="1" parent="1">
          <mxGeometry width="50" height="50" relative="1" as="geometry">
            <mxPoint x="374.5" y="540" as="sourcePoint" />
            <mxPoint x="374.5" y="580" as="targetPoint" />
          </mxGeometry>
        </mxCell>
        <mxCell id="sU1NiZD6SbiHwIhZs8Sj-89" value="" style="endArrow=classic;html=1;rounded=0;" edge="1" parent="1">
          <mxGeometry width="50" height="50" relative="1" as="geometry">
            <mxPoint x="369.5" y="660" as="sourcePoint" />
            <mxPoint x="369.5" y="700" as="targetPoint" />
          </mxGeometry>
        </mxCell>
        <mxCell id="sU1NiZD6SbiHwIhZs8Sj-90" value="" style="endArrow=classic;html=1;rounded=0;" edge="1" parent="1">
          <mxGeometry width="50" height="50" relative="1" as="geometry">
            <mxPoint x="370" y="760" as="sourcePoint" />
            <mxPoint x="370" y="800" as="targetPoint" />
          </mxGeometry>
        </mxCell>
        <mxCell id="sU1NiZD6SbiHwIhZs8Sj-91" value="" style="endArrow=classic;html=1;rounded=0;" edge="1" parent="1">
          <mxGeometry width="50" height="50" relative="1" as="geometry">
            <mxPoint x="369.5" y="870" as="sourcePoint" />
            <mxPoint x="369.5" y="910" as="targetPoint" />
          </mxGeometry>
        </mxCell>
        <mxCell id="sU1NiZD6SbiHwIhZs8Sj-92" value="True" style="text;html=1;align=center;verticalAlign=middle;resizable=0;points=[];autosize=1;strokeColor=none;fillColor=none;" vertex="1" parent="1">
          <mxGeometry x="365" y="658" width="50" height="30" as="geometry" />
        </mxCell>
        <mxCell id="sU1NiZD6SbiHwIhZs8Sj-93" value="" style="endArrow=classic;html=1;rounded=0;" edge="1" parent="1">
          <mxGeometry width="50" height="50" relative="1" as="geometry">
            <mxPoint x="270" y="620" as="sourcePoint" />
            <mxPoint x="300" y="520" as="targetPoint" />
            <Array as="points">
              <mxPoint x="240" y="620" />
              <mxPoint x="240" y="520" />
            </Array>
          </mxGeometry>
        </mxCell>
        <mxCell id="sU1NiZD6SbiHwIhZs8Sj-94" value="False" style="text;html=1;align=center;verticalAlign=middle;resizable=0;points=[];autosize=1;strokeColor=none;fillColor=none;" vertex="1" parent="1">
          <mxGeometry x="235" y="588" width="50" height="30" as="geometry" />
        </mxCell>
        <mxCell id="sU1NiZD6SbiHwIhZs8Sj-95" value="" style="edgeStyle=segmentEdgeStyle;endArrow=classic;html=1;curved=0;rounded=0;endSize=8;startSize=8;" edge="1" parent="1">
          <mxGeometry width="50" height="50" relative="1" as="geometry">
            <mxPoint x="430" y="830" as="sourcePoint" />
            <mxPoint x="440" y="320" as="targetPoint" />
            <Array as="points">
              <mxPoint x="430" y="830" />
              <mxPoint x="520" y="830" />
              <mxPoint x="520" y="320" />
            </Array>
          </mxGeometry>
        </mxCell>
        <mxCell id="sU1NiZD6SbiHwIhZs8Sj-96" value="Stop" style="ellipse;whiteSpace=wrap;html=1;" vertex="1" parent="1">
          <mxGeometry x="310" y="1020" width="110" height="60" as="geometry" />
        </mxCell>
        <mxCell id="sU1NiZD6SbiHwIhZs8Sj-97" value="" style="endArrow=classic;html=1;rounded=0;" edge="1" parent="1">
          <mxGeometry width="50" height="50" relative="1" as="geometry">
            <mxPoint x="365" y="980" as="sourcePoint" />
            <mxPoint x="365" y="1020" as="targetPoint" />
          </mxGeometry>
        </mxCell>
      </root>
    </mxGraphModel>
  </diagram>
  <diagram id="fYQCtiUZO23AstNV73tp" name="Bubble_Sort">
    <mxGraphModel dx="880" dy="478" grid="1" gridSize="10" guides="1" tooltips="1" connect="1" arrows="1" fold="1" page="1" pageScale="1" pageWidth="850" pageHeight="1100" math="0" shadow="0">
      <root>
        <mxCell id="0" />
        <mxCell id="1" parent="0" />
      </root>
    </mxGraphModel>
  </diagram>
  <diagram id="bSUdXMwhzVr1ZfTYYHSb" name="Insertion _Sort">
    <mxGraphModel dx="880" dy="478" grid="1" gridSize="10" guides="1" tooltips="1" connect="1" arrows="1" fold="1" page="1" pageScale="1" pageWidth="850" pageHeight="1100" math="0" shadow="0">
      <root>
        <mxCell id="0" />
        <mxCell id="1" parent="0" />
      </root>
    </mxGraphModel>
  </diagram>
  <diagram id="huEB47GSKrqAu1OZHd-1" name="Binary_Insertion_Sort">
    <mxGraphModel dx="880" dy="478" grid="1" gridSize="10" guides="1" tooltips="1" connect="1" arrows="1" fold="1" page="1" pageScale="1" pageWidth="850" pageHeight="1100" math="0" shadow="0">
      <root>
        <mxCell id="0" />
        <mxCell id="1" parent="0" />
      </root>
    </mxGraphModel>
  </diagram>
</mxfile>
